<svg width="43" height="42" viewBox="0 0 43 42" fill="none" xmlns="http://www.w3.org/2000/svg">
<path d="M25.3898 19.4992L18.2179 17.4008C17.3878 17.1617 16.8101 16.3848 16.8101 15.5215C16.8101 14.4391 17.6866 13.5625 18.7691 13.5625H23.1718C23.982 13.5625 24.7788 13.8082 25.4429 14.2598C25.848 14.532 26.3925 14.4656 26.7378 14.127L29.0488 11.8691C29.5202 11.4109 29.4538 10.6473 28.9292 10.2422C27.3023 8.96719 25.2702 8.25664 23.1851 8.25V5.0625C23.1851 4.47812 22.707 4 22.1226 4H19.9976C19.4132 4 18.9351 4.47812 18.9351 5.0625V8.25H18.7691C14.539 8.25 11.139 11.8824 11.5308 16.1922C11.8097 19.2535 14.1472 21.7438 17.0956 22.607L23.9023 24.5992C24.7323 24.8449 25.3101 25.6152 25.3101 26.4785C25.3101 27.5609 24.4335 28.4375 23.3511 28.4375H18.9484C18.1382 28.4375 17.3413 28.1918 16.6773 27.7402C16.2722 27.468 15.7277 27.5344 15.3823 27.873L13.0714 30.1309C12.5999 30.5891 12.6663 31.3527 13.1909 31.7578C14.8179 33.0328 16.8499 33.7434 18.9351 33.75V36.9375C18.9351 37.5219 19.4132 38 19.9976 38H22.1226C22.707 38 23.1851 37.5219 23.1851 36.9375V33.7367C26.2796 33.677 29.1816 31.8375 30.2042 28.909C31.632 24.8184 29.2347 20.6215 25.3898 19.4992Z" fill="#491456"/>
</svg>
