<svg width="51" height="50" viewBox="0 0 51 50" fill="none" xmlns="http://www.w3.org/2000/svg">
<g id="Location city" clip-path="url(#clip0_733_443)">
<path id="Vector" d="M31.75 22.9167V10.4167L25.5 4.16675L19.25 10.4167V14.5834H6.75V43.7501H44.25V22.9167H31.75ZM15.0833 39.5834H10.9167V35.4167H15.0833V39.5834ZM15.0833 31.2501H10.9167V27.0834H15.0833V31.2501ZM15.0833 22.9167H10.9167V18.7501H15.0833V22.9167ZM27.5833 39.5834H23.4167V35.4167H27.5833V39.5834ZM27.5833 31.2501H23.4167V27.0834H27.5833V31.2501ZM27.5833 22.9167H23.4167V18.7501H27.5833V22.9167ZM27.5833 14.5834H23.4167V10.4167H27.5833V14.5834ZM40.0833 39.5834H35.9167V35.4167H40.0833V39.5834ZM40.0833 31.2501H35.9167V27.0834H40.0833V31.2501Z" fill="#491456"/>
</g>
<defs>
<clipPath id="clip0_733_443">
<rect width="50" height="50" fill="white" transform="translate(0.5)"/>
</clipPath>
</defs>
</svg>
