<svg width="173" height="54" viewBox="0 0 173 54" fill="none" xmlns="http://www.w3.org/2000/svg">
<path fill-rule="evenodd" clip-rule="evenodd" d="M85.3148 8.69566C86.944 7.06662 89.5853 7.06662 91.2144 8.69566C92.8436 10.3248 92.8436 12.9662 91.2144 14.5953L81.2821 24.5277C78.4304 20.7059 78.7402 15.2704 82.2115 11.7992L85.3148 8.69566Z" fill="#491456"/>
<path fill-rule="evenodd" clip-rule="evenodd" d="M99.5138 31.1048C101.143 32.7338 101.143 35.3752 99.5138 37.0043C97.8855 38.6334 95.2438 38.6334 93.6146 37.0043L83.6823 27.072C87.504 24.2204 92.9395 24.5301 96.4108 28.0013L99.5138 31.1048Z" fill="#E4DAFF"/>
<path fill-rule="evenodd" clip-rule="evenodd" d="M77.105 45.304C75.476 46.9332 72.8345 46.9332 71.2055 45.304C69.5764 43.6749 69.5764 41.0336 71.2055 39.4044L81.1378 29.4722C83.9894 33.294 83.6797 38.7294 80.2085 42.2006L77.105 45.304Z" fill="#E4DAFF"/>
<path fill-rule="evenodd" clip-rule="evenodd" d="M62.9059 22.8952C61.2768 21.266 61.2768 18.6247 62.9059 16.9955C64.5351 15.3664 67.1764 15.3664 68.8056 16.9955L78.7379 26.9279C74.9161 29.7796 69.4806 29.4698 66.0094 25.9986L62.9059 22.8952Z" fill="#C6B732"/>
<path fill-rule="evenodd" clip-rule="evenodd" d="M83.0953 44.0877C85.4975 41.4168 86.614 37.9992 86.4446 34.6343L91.2147 39.4044C91.2266 39.4162 91.2385 39.4281 91.2505 39.4399V42.8454C91.2505 45.1494 89.3828 47.0171 87.0789 47.0171C85.2076 47.0171 83.6241 45.7849 83.0953 44.0877Z" fill="#C6B732"/>
<path fill-rule="evenodd" clip-rule="evenodd" d="M64.1221 28.885C66.7929 31.2873 70.2105 32.4038 73.5754 32.2344L68.8055 37.0045C68.7935 37.0164 68.7816 37.0283 68.7699 37.0402H65.3644C63.0604 37.0403 61.1927 35.1725 61.1927 32.8686C61.1927 30.9973 62.4249 29.4137 64.1221 28.885Z" fill="#491456"/>
<path fill-rule="evenodd" clip-rule="evenodd" d="M98.2977 25.115C95.6271 22.7127 92.2095 21.5962 88.8446 21.7655L93.6146 16.9955C93.6265 16.9837 93.6383 16.9717 93.6501 16.9597H97.0558C99.36 16.9597 101.228 18.8275 101.228 21.1315C101.228 23.0028 99.9951 24.5863 98.2977 25.115Z" fill="#E4DAFF"/>
<path fill-rule="evenodd" clip-rule="evenodd" d="M79.3249 9.91217C76.9226 12.583 75.8062 16.0006 75.9754 19.3656L71.2055 14.5955C71.1935 14.5837 71.1817 14.5718 71.1697 14.5599V11.1544C71.1697 8.85048 73.0374 6.98267 75.3413 6.98267C77.2126 6.98267 78.7961 8.21492 79.3249 9.91217Z" fill="#E4DAFF"/>
<path fill-rule="evenodd" clip-rule="evenodd" d="M75.3416 3.58862C71.1631 3.58862 67.7758 6.97595 67.7758 11.1544V12.6259C65.262 11.9691 62.4761 12.6255 60.5061 14.5955C57.5515 17.5501 57.5515 22.3405 60.5061 25.2951L61.5466 26.3355C59.3046 27.6487 57.799 30.0828 57.799 32.8686C57.799 37.047 61.1863 40.4343 65.3647 40.4343H66.8361C66.1793 42.9482 66.8357 45.7341 68.8057 47.7039C71.7603 50.6585 76.5507 50.6585 79.5053 47.7039L82.6087 44.6006C85.3463 41.8629 86.625 38.2186 86.4445 34.6341L91.2147 39.4042C94.1694 42.3589 98.9599 42.3589 101.915 39.4042C104.869 36.4496 104.869 31.6592 101.915 28.7047L100.875 27.6644C103.116 26.3513 104.622 23.9171 104.622 21.1313C104.622 16.9529 101.234 13.5656 97.0558 13.5656H95.5843C96.2412 11.0517 95.5846 8.26573 93.6147 6.29578C90.6602 3.34116 85.8698 3.34116 82.9152 6.29578L79.8117 9.39926C77.074 12.1369 75.7954 15.7811 75.9758 19.3655L71.2057 14.5955C71.1938 14.5836 71.1819 14.5717 71.1699 14.5599V11.1544C71.1699 8.85045 73.0376 6.98276 75.3416 6.98276C77.2129 6.98276 78.7964 8.2149 79.3251 9.91214C79.4818 9.73793 79.6441 9.56689 79.8117 9.39926L81.8746 7.33622C80.5615 5.09428 78.1274 3.58862 75.3416 3.58862ZM93.6503 16.9597C93.6384 16.9716 93.6267 16.9835 93.6147 16.9954L88.8447 21.7654C92.2097 21.5961 95.6272 22.7125 98.2978 25.1149C99.9953 24.5862 101.228 23.0026 101.228 21.1313C101.228 18.8274 99.3602 16.9597 97.0558 16.9597H93.6503ZM68.77 37.0402C68.7818 37.0282 68.7937 37.0163 68.8057 37.0044L73.5756 32.2343C70.2107 32.4037 66.7932 31.2872 64.1225 28.885C62.4252 29.4138 61.193 30.9973 61.193 32.8686C61.193 35.1725 63.0608 37.0402 65.3647 37.0402H68.77ZM87.0789 50.4113C84.293 50.4113 81.8589 48.9055 80.5457 46.6636L82.6087 44.6006C82.7764 44.4329 82.9385 44.2619 83.0952 44.0877C83.624 45.7849 85.2075 47.0172 87.0789 47.0172C89.3828 47.0172 91.2505 45.1495 91.2505 42.8456V39.44C92.2282 40.4049 93.4033 41.0496 94.6447 41.3739V42.8456C94.6447 47.024 91.2573 50.4113 87.0789 50.4113ZM91.2147 8.69573C89.5856 7.06669 86.9443 7.06669 85.3151 8.69573L82.2116 11.7992C78.7405 15.2705 78.4307 20.7059 81.2824 24.5277L91.2147 14.5953C92.8439 12.9662 92.8439 10.3249 91.2147 8.69573ZM99.514 37.0043C101.143 35.3751 101.143 32.7338 99.514 31.1047L96.4108 28.0012C92.9397 24.53 87.5041 24.2202 83.6823 27.0719L93.6147 37.0043C95.2438 38.6334 97.8857 38.6334 99.514 37.0043ZM77.1052 45.304C75.4761 46.9331 72.8348 46.9331 71.2056 45.304C69.5766 43.6748 69.5766 41.0335 71.2056 39.4043L81.138 29.472C83.9897 33.2938 83.6799 38.7293 80.2087 42.2005L77.1052 45.304ZM62.9061 16.9954C61.277 18.6246 61.277 21.2659 62.9061 22.895L66.0095 25.9985C69.4808 29.4696 74.9162 29.7794 78.738 26.9278L68.8057 16.9954C67.1765 15.3664 64.5352 15.3664 62.9061 16.9954Z" fill="#A988B1"/>
<path d="M1.79932 18.8879H5.50959V30.4172H11.882V33.5405H1.79932V18.8879Z" fill="#A988B1"/>
<path d="M18.6187 33.855C17.3749 33.855 16.2848 33.6314 15.3485 33.1842C14.4122 32.723 13.6855 32.0941 13.1684 31.2976C12.6654 30.4871 12.4138 29.5578 12.4138 28.5096C12.4138 27.4615 12.6654 26.5392 13.1684 25.7427C13.6855 24.9321 14.4122 24.3032 15.3485 23.8561C16.2848 23.3949 17.3749 23.1643 18.6187 23.1643C19.8624 23.1643 20.9524 23.3949 21.8887 23.8561C22.825 24.3032 23.5447 24.9321 24.0478 25.7427C24.5649 26.5392 24.8234 27.4615 24.8234 28.5096C24.8234 29.5578 24.5649 30.4871 24.0478 31.2976C23.5447 32.0941 22.825 32.723 21.8887 33.1842C20.9524 33.6314 19.8624 33.855 18.6187 33.855ZM18.6187 30.9832C19.3593 30.9832 19.9462 30.7666 20.3794 30.3334C20.8267 29.8861 21.0502 29.2783 21.0502 28.5096C21.0502 27.741 20.8267 27.1401 20.3794 26.7069C19.9462 26.2597 19.3593 26.0362 18.6187 26.0362C17.8779 26.0362 17.284 26.2597 16.8369 26.7069C16.4036 27.1401 16.187 27.741 16.187 28.5096C16.187 29.2783 16.4036 29.8861 16.8369 30.3334C17.284 30.7666 17.8779 30.9832 18.6187 30.9832Z" fill="#A988B1"/>
<path d="M31.7534 38.3619C31.0826 38.3619 30.4048 38.299 29.72 38.1733C29.0493 38.0474 28.4692 37.8798 27.9802 37.6701V35.1127C29.0841 35.5878 30.3419 35.8254 31.7534 35.8254C32.7735 35.8254 33.5072 35.6158 33.9544 35.1966C34.4156 34.7774 34.6461 34.1625 34.6461 33.3519V32.744C34.2409 33.0934 33.7378 33.3658 33.1368 33.5615C32.5499 33.7572 31.921 33.855 31.2502 33.855C30.1882 33.855 29.2519 33.6314 28.4413 33.1842C27.6308 32.737 26.9949 32.1081 26.5338 31.2976C26.0865 30.4871 25.863 29.5578 25.863 28.5096C25.863 27.4476 26.0865 26.5112 26.5338 25.7008C26.981 24.8902 27.6098 24.2683 28.4204 23.8351C29.2309 23.3879 30.1603 23.1643 31.2083 23.1643C32.6478 23.1643 33.8356 23.6045 34.7719 24.485V23.4787H38.3355V32.8489C38.3355 34.5956 37.7974 35.9513 36.7214 36.9155C35.6593 37.8798 34.0033 38.3619 31.7534 38.3619ZM32.1726 31.0042C32.7456 31.0042 33.2556 30.8574 33.7028 30.564C34.15 30.2705 34.4644 29.8792 34.6461 29.39V27.6293C34.4504 27.1401 34.129 26.7558 33.6819 26.4763C33.2346 26.1829 32.7316 26.0362 32.1726 26.0362C31.418 26.0362 30.81 26.2597 30.3489 26.7069C29.8877 27.1401 29.6571 27.734 29.6571 28.4887C29.6571 29.2573 29.8877 29.8722 30.3489 30.3334C30.81 30.7805 31.418 31.0042 32.1726 31.0042Z" fill="#A988B1"/>
<path d="M45.4762 33.855C44.2324 33.855 43.1425 33.6314 42.2061 33.1842C41.2698 32.723 40.5431 32.0941 40.0261 31.2976C39.5229 30.4871 39.2714 29.5578 39.2714 28.5096C39.2714 27.4615 39.5229 26.5392 40.0261 25.7427C40.5431 24.9321 41.2698 24.3032 42.2061 23.8561C43.1425 23.3949 44.2324 23.1643 45.4762 23.1643C46.72 23.1643 47.8099 23.3949 48.7463 23.8561C49.6826 24.3032 50.4023 24.9321 50.9054 25.7427C51.4224 26.5392 51.681 27.4615 51.681 28.5096C51.681 29.5578 51.4224 30.4871 50.9054 31.2976C50.4023 32.0941 49.6826 32.723 48.7463 33.1842C47.8099 33.6314 46.72 33.855 45.4762 33.855ZM45.4762 30.9832C46.2168 30.9832 46.8038 30.7666 47.2371 30.3334C47.6842 29.8861 47.9078 29.2783 47.9078 28.5096C47.9078 27.741 47.6842 27.1401 47.2371 26.7069C46.8038 26.2597 46.2168 26.0362 45.4762 26.0362C44.7356 26.0362 44.1416 26.2597 43.6944 26.7069C43.2611 27.1401 43.0446 27.741 43.0446 28.5096C43.0446 29.2783 43.2611 29.8861 43.6944 30.3334C44.1416 30.7666 44.7356 30.9832 45.4762 30.9832Z" fill="#A988B1"/>
<path d="M110.855 18.8879H114.566V33.5405H110.855V18.8879Z" fill="#A988B1"/>
<path d="M116.444 23.4787H120.008V24.485C120.944 23.6045 122.132 23.1643 123.571 23.1643C124.619 23.1643 125.549 23.3879 126.359 23.8351C127.17 24.2683 127.798 24.8902 128.245 25.7008C128.693 26.4973 128.917 27.4267 128.917 28.4887C128.917 29.5368 128.693 30.4731 128.245 31.2976C127.798 32.1081 127.17 32.737 126.359 33.1842C125.563 33.6314 124.633 33.855 123.571 33.855C122.9 33.855 122.257 33.7502 121.643 33.5405C121.042 33.345 120.539 33.0724 120.134 32.723V38.1312H116.444V23.4787ZM122.607 30.9832C123.362 30.9832 123.97 30.7596 124.43 30.3124C124.891 29.8652 125.123 29.2573 125.123 28.4887C125.123 27.72 124.891 27.1192 124.43 26.6859C123.97 26.2388 123.362 26.0152 122.607 26.0152C122.048 26.0152 121.545 26.1619 121.097 26.4554C120.65 26.7349 120.33 27.1192 120.134 27.6083V29.39C120.33 29.8792 120.65 30.2705 121.097 30.564C121.545 30.8435 122.048 30.9832 122.607 30.9832Z" fill="#A988B1"/>
<path d="M134.417 33.855C133.607 33.855 132.761 33.7712 131.881 33.6034C131 33.4498 130.301 33.2262 129.784 32.9327V30.2286C130.357 30.564 131.042 30.8435 131.839 31.0671C132.649 31.2766 133.389 31.3815 134.061 31.3815C134.549 31.3815 134.906 31.3465 135.129 31.2766C135.353 31.2068 135.465 31.0671 135.465 30.8574C135.465 30.6897 135.389 30.5569 135.235 30.4591C135.095 30.3474 134.829 30.2355 134.438 30.1237C134.061 29.998 133.621 29.8652 133.117 29.7254C132.265 29.4739 131.594 29.2154 131.105 28.9498C130.615 28.6843 130.253 28.3489 130.014 27.9437C129.777 27.5384 129.659 27.0284 129.659 26.4135C129.659 25.3234 130.085 24.5129 130.937 23.9818C131.803 23.4368 132.984 23.1643 134.48 23.1643C135.207 23.1643 135.968 23.2412 136.764 23.3949C137.576 23.5486 138.182 23.7513 138.589 24.0028V26.665C138.17 26.3855 137.61 26.1549 136.911 25.9732C136.227 25.7915 135.583 25.7008 134.982 25.7008C134.508 25.7008 134.137 25.7496 133.872 25.8474C133.607 25.9313 133.474 26.085 133.474 26.3086C133.474 26.5183 133.607 26.679 133.872 26.7908C134.137 26.9025 134.613 27.0423 135.297 27.21C135.744 27.3218 135.933 27.3707 135.863 27.3567C136.757 27.5943 137.449 27.8598 137.938 28.1533C138.428 28.4468 138.769 28.7962 138.965 29.2014C139.176 29.5927 139.28 30.0958 139.28 30.7107C139.28 31.6749 138.861 32.4435 138.023 33.0165C137.198 33.5755 135.995 33.855 134.417 33.855Z" fill="#A988B1"/>
<path d="M144.788 33.8551C143.405 33.8551 142.364 33.4708 141.665 32.7022C140.981 31.9335 140.638 30.9204 140.638 29.6627V23.4788H144.328V29.2434C144.328 30.4033 144.851 30.9832 145.9 30.9832C146.375 30.9832 146.808 30.8715 147.199 30.6478C147.59 30.4242 147.912 30.0959 148.163 29.6627V23.4788H151.853V33.5406H148.29V32.4506C147.857 32.9117 147.332 33.2611 146.717 33.4987C146.103 33.7363 145.46 33.8551 144.788 33.8551Z" fill="#A988B1"/>
<path d="M153.741 23.4787H157.159V24.5688C157.578 24.1216 158.06 23.7792 158.605 23.5416C159.15 23.29 159.73 23.1643 160.345 23.1643C161.1 23.1643 161.701 23.2761 162.148 23.4997C162.609 23.7233 162.979 24.0587 163.258 24.5059C163.677 24.0867 164.188 23.7582 164.789 23.5207C165.39 23.2831 165.998 23.1643 166.612 23.1643C167.94 23.1643 168.884 23.5067 169.443 24.1915C170.001 24.8623 170.281 25.8334 170.281 27.1051V33.5405H166.759V27.6293C166.759 27.0703 166.654 26.665 166.444 26.4135C166.235 26.1619 165.886 26.0362 165.397 26.0362C164.768 26.0362 164.257 26.2597 163.866 26.7069C163.881 26.9444 163.888 27.3079 163.888 27.7969V33.5405H160.366V27.4825C160.366 26.9654 160.275 26.5951 160.094 26.3716C159.912 26.1479 159.59 26.0362 159.13 26.0362C158.416 26.0362 157.802 26.4344 157.284 27.231V33.5405H153.741V23.4787Z" fill="#A988B1"/>
</svg>
