<svg width="43" height="42" viewBox="0 0 43 42" fill="none" xmlns="http://www.w3.org/2000/svg">
<g id="icon">
<path id="Vector" d="M40.5 15.75C41.6046 15.75 42.5 14.8546 42.5 13.75V12.5C42.5 11.3954 41.6046 10.5 40.5 10.5H34C32.8954 10.5 32 9.60457 32 8.5V2C32 0.89543 31.1046 0 30 0H28.75C27.6454 0 26.75 0.895431 26.75 2V8.5C26.75 9.60457 25.8546 10.5 24.75 10.5H18.25C17.1454 10.5 16.25 9.60457 16.25 8.5V2C16.25 0.89543 15.3546 0 14.25 0H13C11.8954 0 11 0.895431 11 2V8.5C11 9.60457 10.1046 10.5 9 10.5H2.5C1.39543 10.5 0.5 11.3954 0.5 12.5V13.75C0.5 14.8546 1.39543 15.75 2.5 15.75H9C10.1046 15.75 11 16.6454 11 17.75V24.25C11 25.3546 10.1046 26.25 9 26.25H2.5C1.39543 26.25 0.5 27.1454 0.5 28.25V29.5C0.5 30.6046 1.39543 31.5 2.5 31.5H9C10.1046 31.5 11 32.3954 11 33.5V40C11 41.1046 11.8954 42 13 42H14.25C15.3546 42 16.25 41.1046 16.25 40V33.5C16.25 32.3954 17.1454 31.5 18.25 31.5H24.75C25.8546 31.5 26.75 32.3954 26.75 33.5V40C26.75 41.1046 27.6454 42 28.75 42H30C31.1046 42 32 41.1046 32 40V33.5C32 32.3954 32.8954 31.5 34 31.5H40.5C41.6046 31.5 42.5 30.6046 42.5 29.5V28.25C42.5 27.1454 41.6046 26.25 40.5 26.25H34C32.8954 26.25 32 25.3546 32 24.25V17.75C32 16.6454 32.8954 15.75 34 15.75H40.5ZM26.75 24.25C26.75 25.3546 25.8546 26.25 24.75 26.25H18.25C17.1454 26.25 16.25 25.3546 16.25 24.25V17.75C16.25 16.6454 17.1454 15.75 18.25 15.75H24.75C25.8546 15.75 26.75 16.6454 26.75 17.75V24.25Z" fill="#491456"/>
</g>
</svg>
