<svg width="43" height="42" viewBox="0 0 43 42" fill="none" xmlns="http://www.w3.org/2000/svg">
<g id="icon">
<path id="Vector" d="M8.94667 18.1767C12.3067 24.78 17.72 30.17 24.3233 33.5533L29.4567 28.42C30.0867 27.79 31.02 27.58 31.8367 27.86C34.45 28.7233 37.2733 29.19 40.1667 29.19C41.45 29.19 42.5 30.24 42.5 31.5233V39.6667C42.5 40.95 41.45 42 40.1667 42C18.2567 42 0.5 24.2433 0.5 2.33333C0.5 1.05 1.55 0 2.83333 0H11C12.2833 0 13.3333 1.05 13.3333 2.33333C13.3333 5.25 13.8 8.05 14.6633 10.6633C14.92 11.48 14.7333 12.39 14.08 13.0433L8.94667 18.1767Z" fill="#491456"/>
</g>
</svg>
