<svg width="43" height="42" viewBox="0 0 43 42" fill="none" xmlns="http://www.w3.org/2000/svg">
<path d="M39.686 18.875H37.727C37.1426 17.5469 36.2926 16.3715 35.2434 15.3887L36.4985 10.375H34.3735C32.4212 10.375 30.6946 11.2715 29.5258 12.6527C29.0212 12.5797 28.5231 12.5 27.9985 12.5H19.4985C14.3587 12.5 10.0755 16.1523 9.086 21H6.21725C5.23444 21 4.45749 20.1035 4.65671 19.0875C4.8028 18.3305 5.51335 17.8125 6.28366 17.8125H6.35007C6.56921 17.8125 6.7485 17.6332 6.7485 17.4141V16.0859C6.7485 15.8668 6.56921 15.6875 6.35007 15.6875C4.45749 15.6875 2.77077 17.0422 2.53171 18.9148C2.23952 21.1859 4.00592 23.125 6.21725 23.125H8.8735C8.8735 26.5914 10.5602 29.6395 13.1235 31.5785V36.9375C13.1235 37.5219 13.6016 38 14.186 38H18.436C19.0204 38 19.4985 37.5219 19.4985 36.9375V33.75H27.9985V36.9375C27.9985 37.5219 28.4766 38 29.061 38H33.311C33.8954 38 34.3735 37.5219 34.3735 36.9375V31.5785C35.1571 30.9875 35.8544 30.2902 36.452 29.5H39.686C40.2704 29.5 40.7485 29.0219 40.7485 28.4375V19.9375C40.7485 19.3531 40.2704 18.875 39.686 18.875ZM31.186 23.125C30.6016 23.125 30.1235 22.6469 30.1235 22.0625C30.1235 21.4781 30.6016 21 31.186 21C31.7704 21 32.2485 21.4781 32.2485 22.0625C32.2485 22.6469 31.7704 23.125 31.186 23.125ZM19.4985 10.375H27.9985C28.3571 10.375 28.709 10.4016 29.0544 10.4281C29.0544 10.4082 29.061 10.3949 29.061 10.375C29.061 6.85547 26.2055 4 22.686 4C19.1665 4 16.311 6.85547 16.311 10.375C16.311 10.5145 16.3442 10.6473 16.3508 10.7867C17.3602 10.5277 18.4094 10.375 19.4985 10.375Z" fill="#491456"/>
</svg>
