<svg width="70" height="71" viewBox="0 0 70 71" fill="none" xmlns="http://www.w3.org/2000/svg">
<path d="M28.0235 36.0765C28.3391 37.4434 26.8396 38.4822 25.6731 37.753L21.695 35.2672L16.7275 43.2166C15.4302 45.2923 16.9296 48 19.3761 48H24.4531C25.1002 48 25.6249 48.5247 25.6249 49.1718V53.0781C25.6249 53.7253 25.1002 54.25 24.4531 54.25H19.3862C12.0294 54.25 7.54031 46.1398 11.4362 39.9062L16.3993 31.9582L12.4222 29.4731C11.2424 28.736 11.5466 26.9378 12.8987 26.6256L23.664 24.1403C24.5049 23.9461 25.3438 24.4704 25.5379 25.3112L28.0235 36.0765ZM37.6485 18.2137L41.6807 24.6664L37.7022 27.1525C36.5253 27.8876 36.8232 29.6869 38.1786 29.9999L48.9439 32.4853C49.7908 32.6805 50.6251 32.1495 50.8179 31.3144L53.3032 20.5491C53.6154 19.1971 52.1323 18.1351 50.9528 18.8725L46.9795 21.3553L42.9499 14.902C39.2857 9.03941 30.7225 9.02593 27.0499 14.902L25.2957 17.7112C24.953 18.26 25.12 18.9827 25.6688 19.3257L28.9812 21.3955C29.53 21.7385 30.2531 21.5716 30.596 21.0228L32.35 18.2159C33.5914 16.2294 36.4489 16.2944 37.6485 18.2137ZM58.5631 39.9062L55.8761 35.603C55.5333 35.0539 54.8101 34.8868 54.2611 35.2299L50.9544 37.2962C50.4055 37.6392 50.2386 38.3621 50.5815 38.911L53.2733 43.2188C54.5679 45.2902 53.0724 48.0001 50.6233 48.0001H41.2499V43.3144C41.2499 41.9264 39.5661 41.2263 38.5826 42.2097L30.7701 50.0203C30.1599 50.6304 30.1599 51.6198 30.7701 52.2299L38.5826 60.0414C39.5594 61.0183 41.2499 60.3339 41.2499 58.9364V54.25H50.6132C57.9641 54.25 62.4623 46.1448 58.5631 39.9062Z" fill="#491456"/>
</svg>
