<svg width="70" height="71" viewBox="0 0 70 71" fill="none" xmlns="http://www.w3.org/2000/svg">
<path d="M17.5 32.5C20.2578 32.5 22.5 30.2578 22.5 27.5C22.5 24.7422 20.2578 22.5 17.5 22.5C14.7422 22.5 12.5 24.7422 12.5 27.5C12.5 30.2578 14.7422 32.5 17.5 32.5ZM52.5 32.5C55.2578 32.5 57.5 30.2578 57.5 27.5C57.5 24.7422 55.2578 22.5 52.5 22.5C49.7422 22.5 47.5 24.7422 47.5 27.5C47.5 30.2578 49.7422 32.5 52.5 32.5ZM55 35H50C48.625 35 47.3828 35.5547 46.4766 36.4531C49.625 38.1797 51.8594 41.2969 52.3438 45H57.5C58.8828 45 60 43.8828 60 42.5V40C60 37.2422 57.7578 35 55 35ZM35 35C39.8359 35 43.75 31.0859 43.75 26.25C43.75 21.4141 39.8359 17.5 35 17.5C30.1641 17.5 26.25 21.4141 26.25 26.25C26.25 31.0859 30.1641 35 35 35ZM41 37.5H40.3516C38.7266 38.2812 36.9219 38.75 35 38.75C33.0781 38.75 31.2812 38.2812 29.6484 37.5H29C24.0312 37.5 20 41.5313 20 46.5V48.75C20 50.8203 21.6797 52.5 23.75 52.5H46.25C48.3203 52.5 50 50.8203 50 48.75V46.5C50 41.5313 45.9688 37.5 41 37.5ZM23.5234 36.4531C22.6172 35.5547 21.375 35 20 35H15C12.2422 35 10 37.2422 10 40V42.5C10 43.8828 11.1172 45 12.5 45H17.6484C18.1406 41.2969 20.375 38.1797 23.5234 36.4531Z" fill="#491456"/>
</svg>
