<svg width="50" height="50" viewBox="0 0 50 50" fill="none" xmlns="http://www.w3.org/2000/svg">
<g id="Access time" clip-path="url(#clip0_733_418)">
<path id="Vector" d="M24.9792 4.16675C13.4792 4.16675 4.16675 13.5001 4.16675 25.0001C4.16675 36.5001 13.4792 45.8334 24.9792 45.8334C36.5001 45.8334 45.8334 36.5001 45.8334 25.0001C45.8334 13.5001 36.5001 4.16675 24.9792 4.16675ZM25.0001 41.6667C15.7917 41.6667 8.33341 34.2084 8.33341 25.0001C8.33341 15.7917 15.7917 8.33341 25.0001 8.33341C34.2084 8.33341 41.6667 15.7917 41.6667 25.0001C41.6667 34.2084 34.2084 41.6667 25.0001 41.6667Z" fill="#491456"/>
<path id="Vector_2" d="M26.0417 14.5833H22.9167V27.0833L33.8542 33.6458L35.4167 31.0833L26.0417 25.5208V14.5833Z" fill="#491456"/>
</g>
<defs>
<clipPath id="clip0_733_418">
<rect width="50" height="50" fill="white"/>
</clipPath>
</defs>
</svg>
